<?xml version="1.0" standalone="no"?>
<!DOCTYPE svg PUBLIC "-//W3C//DTD SVG 20010904//EN"
 "http://www.w3.org/TR/2001/REC-SVG-20010904/DTD/svg10.dtd">
<svg version="1.0" xmlns="http://www.w3.org/2000/svg"
 width="1067.000000pt" height="519.000000pt" viewBox="0 0 1067.000000 519.000000"
 preserveAspectRatio="xMidYMid meet">

<g transform="translate(0.000000,519.000000) scale(0.100000,-0.100000)"
fill="#000000" stroke="none">
<path d="M6918 4226 c-47 -46 -222 -357 -306 -546 -128 -285 -284 -691 -438
-1144 -36 -104 -69 -197 -74 -206 -5 -9 -27 -25 -49 -34 -50 -23 -57 -40 -30
-82 19 -31 20 -37 7 -77 -17 -50 -45 -66 -210 -121 -132 -45 -197 -48 -234
-11 -21 21 -24 31 -19 62 17 99 28 122 158 327 32 49 57 99 57 112 0 34 -26
54 -72 54 -32 0 -47 -7 -74 -34 -19 -19 -34 -41 -34 -50 0 -41 -48 -100 -175
-215 -173 -158 -287 -248 -367 -289 -65 -33 -92 -38 -117 -23 -19 12 -16 82 4
93 8 5 54 36 102 69 49 33 103 70 120 82 34 23 43 47 18 47 -8 0 -63 -31 -122
-69 -60 -38 -110 -67 -112 -65 -8 7 32 88 76 155 58 90 157 169 212 169 37 0
71 -23 96 -67 34 -57 65 -60 65 -5 0 76 -74 142 -158 142 -134 0 -318 -195
-372 -395 l-17 -60 -74 -29 c-86 -34 -199 -45 -239 -24 -36 20 -35 52 5 155
19 51 35 102 35 113 0 12 -12 32 -26 47 -22 22 -32 25 -72 20 -58 -6 -170 -67
-345 -188 -75 -52 -139 -89 -153 -89 -49 0 -31 86 77 367 70 179 79 220 55
229 -9 3 -26 0 -39 -9 -12 -8 -121 -111 -242 -229 -186 -181 -297 -278 -318
-278 -3 0 6 35 19 78 30 96 29 126 -8 130 -18 2 -37 -6 -58 -25 -29 -26 -33
-37 -40 -105 -5 -50 -15 -90 -31 -119 -21 -39 -33 -47 -99 -73 -87 -34 -200
-45 -240 -24 -36 20 -35 52 5 155 19 51 35 102 35 113 0 12 -12 32 -26 47 -22
22 -32 25 -72 20 -58 -6 -170 -67 -345 -188 -75 -52 -139 -89 -153 -89 -49 0
-31 86 77 367 70 179 79 220 55 229 -9 3 -27 -1 -40 -9 -13 -9 -151 -141 -307
-294 -155 -153 -279 -269 -275 -258 32 84 66 204 64 225 -4 38 -48 39 -88 2
-29 -25 -33 -36 -39 -98 -4 -45 -19 -98 -41 -151 -34 -80 -36 -83 -90 -107
-82 -36 -153 -49 -238 -44 -129 8 -205 65 -220 165 -13 91 -9 99 67 122 146
44 311 197 311 288 0 55 -95 85 -186 58 -48 -14 -70 -28 -124 -83 -99 -99
-150 -215 -150 -342 0 -111 83 -216 201 -255 69 -23 229 -16 312 14 34 12 70
18 86 15 23 -5 37 3 87 48 32 30 88 77 124 105 79 62 190 176 190 195 0 16
248 264 256 256 2 -3 -3 -22 -12 -44 -56 -130 -96 -273 -101 -356 -7 -100 1
-118 51 -118 38 1 86 27 272 154 269 182 341 189 263 26 -41 -85 -45 -157 -10
-194 51 -54 174 -56 302 -6 l48 19 -2 -42 c-2 -37 1 -42 21 -45 19 -3 81 54
333 304 170 169 311 305 314 302 3 -3 -2 -22 -11 -44 -56 -130 -96 -273 -101
-356 -7 -100 1 -118 51 -118 38 1 86 27 272 154 269 182 341 189 263 26 -41
-85 -45 -157 -10 -194 52 -56 177 -56 314 -1 l57 24 0 -30 c0 -82 116 -107
229 -50 70 36 109 65 285 215 75 64 140 116 145 116 4 0 2 -23 -5 -52 -19 -70
-18 -162 2 -204 22 -46 83 -74 160 -74 52 0 196 41 296 84 20 9 16 -2 -86
-282 -31 -84 -56 -161 -56 -172 0 -40 92 -40 122 0 19 26 38 112 56 256 6 45
26 121 44 168 26 69 40 92 65 107 l32 20 98 -94 c109 -103 134 -121 163 -112
27 8 26 59 0 102 -11 18 -58 58 -105 89 -47 31 -85 57 -85 59 0 1 25 22 56 45
48 36 54 44 40 52 -16 9 -50 -4 -116 -44 -18 -11 -23 -10 -36 6 -27 38 -31 36
181 101 140 44 176 65 154 92 -17 20 -51 16 -166 -17 -57 -16 -114 -30 -127
-30 l-24 0 37 118 c31 97 47 130 94 194 224 303 436 697 617 1148 63 158 120
333 120 371 0 13 -9 39 -20 57 -26 42 -57 42 -102 -2z m59 -68 c-9 -90 -157
-457 -317 -784 -129 -267 -330 -629 -337 -608 -13 40 298 807 462 1139 81 163
170 305 192 305 3 0 3 -24 0 -52z m-5313 -1677 c10 -15 -52 -95 -103 -135 -56
-42 -164 -91 -169 -75 -2 5 6 29 18 54 23 48 93 115 150 146 37 19 95 25 104
10z"/>
<path d="M6763 2778 c-43 -53 -71 -176 -44 -192 12 -8 103 162 99 183 -4 20
-41 26 -55 9z"/>
<path d="M7647 2584 c-39 -38 -171 -166 -293 -286 -121 -120 -223 -218 -226
-218 -3 0 10 46 29 102 19 56 33 113 31 127 -4 39 -47 40 -88 4 -29 -26 -33
-37 -40 -103 -5 -50 -19 -99 -40 -147 -31 -68 -35 -73 -89 -96 -80 -36 -144
-50 -203 -45 -43 5 -57 11 -84 41 -19 20 -36 52 -40 73 -10 56 28 212 76 312
46 96 48 112 20 137 -34 31 -66 7 -105 -78 -47 -103 -70 -198 -70 -297 0 -125
33 -197 109 -237 50 -27 184 -22 269 10 37 13 70 21 73 16 13 -21 47 -5 106
49 35 32 88 76 118 98 99 74 201 175 195 193 -4 13 31 53 120 140 69 68 128
121 131 119 2 -3 -3 -22 -12 -44 -56 -130 -96 -273 -101 -356 -7 -100 1 -118
51 -118 38 1 86 27 272 154 269 182 341 189 263 26 -41 -85 -45 -157 -10 -194
71 -76 253 -49 447 67 115 68 273 181 274 195 0 24 -31 11 -137 -56 -60 -38
-137 -85 -173 -105 -177 -98 -369 -116 -378 -36 -2 13 13 66 33 116 19 51 35
102 35 113 0 12 -12 32 -26 47 -22 22 -32 25 -72 20 -58 -6 -170 -67 -345
-188 -75 -52 -139 -89 -153 -89 -49 0 -31 87 78 367 94 244 83 286 -45 167z"/>
</g>
</svg>
